<svg width="34" height="324" viewBox="0 0 34 324" fill="none" xmlns="http://www.w3.org/2000/svg">
<path d="M8.944 250.309C8.524 250.365 8.22533 250.552 8.048 250.869C7.86133 251.186 7.75867 251.583 7.74 252.059C7.74 252.227 7.754 252.404 7.782 252.591C7.81 252.768 7.866 252.936 7.95 253.095C8.034 253.254 8.146 253.384 8.286 253.487C8.426 253.59 8.59867 253.641 8.804 253.641C9.01867 253.65 9.20067 253.599 9.35 253.487C9.49933 253.366 9.62067 253.207 9.714 253.011C9.77933 252.871 9.84 252.722 9.896 252.563C9.94267 252.395 9.98933 252.232 10.036 252.073C10.0733 251.914 10.106 251.76 10.134 251.611C10.162 251.462 10.19 251.331 10.218 251.219C10.302 250.818 10.4 250.43 10.512 250.057C10.624 249.684 10.778 249.352 10.974 249.063C11.17 248.774 11.4313 248.54 11.758 248.363C12.0847 248.186 12.5093 248.092 13.032 248.083C13.6013 248.083 14.0867 248.19 14.488 248.405C14.8893 248.62 15.2113 248.909 15.454 249.273C15.6967 249.618 15.874 250.02 15.986 250.477C16.0887 250.934 16.1307 251.438 16.112 251.989C16.1027 252.521 16.0327 253.02 15.902 253.487C15.762 253.954 15.5613 254.369 15.3 254.733C15.0387 255.088 14.712 255.372 14.32 255.587C13.928 255.802 13.466 255.923 12.934 255.951L12.934 253.879C13.1767 253.823 13.3773 253.73 13.536 253.599C13.6947 253.468 13.8253 253.314 13.928 253.137C14.0307 252.96 14.1053 252.764 14.152 252.549C14.1987 252.325 14.2267 252.101 14.236 251.877C14.2453 251.644 14.236 251.42 14.208 251.205C14.18 250.99 14.1287 250.804 14.054 250.645C13.97 250.477 13.858 250.346 13.718 250.253C13.578 250.16 13.4007 250.113 13.186 250.113C12.8873 250.113 12.668 250.206 12.528 250.393C12.388 250.57 12.29 250.766 12.234 250.981C12.1967 251.13 12.164 251.266 12.136 251.387C12.0987 251.499 12.0707 251.611 12.052 251.723C12.024 251.835 11.996 251.952 11.968 252.073C11.94 252.194 11.9073 252.334 11.87 252.493C11.7767 252.848 11.674 253.216 11.562 253.599C11.4407 253.972 11.2727 254.308 11.058 254.607C10.806 254.971 10.484 255.246 10.092 255.433C9.7 255.61 9.266 255.69 8.79 255.671C8.23 255.643 7.768 255.512 7.404 255.279C7.03067 255.046 6.73667 254.747 6.522 254.383C6.30733 254.019 6.158 253.618 6.074 253.179C5.99 252.74 5.95267 252.302 5.962 251.863C5.97133 251.378 6.04133 250.93 6.172 250.519C6.29333 250.099 6.47533 249.735 6.718 249.427C6.96067 249.11 7.26867 248.853 7.642 248.657C8.01533 248.461 8.44933 248.34 8.944 248.293L8.944 250.309ZM14.362 243.33C14.362 242.957 14.2733 242.663 14.096 242.448C13.9187 242.224 13.718 242.089 13.494 242.042L13.494 239.97C13.97 240.036 14.3713 240.171 14.698 240.376C15.0247 240.582 15.2953 240.838 15.51 241.146C15.7247 241.445 15.8787 241.786 15.972 242.168C16.0653 242.551 16.112 242.948 16.112 243.358C16.112 243.974 16.028 244.511 15.86 244.968C15.6827 245.416 15.4307 245.79 15.104 246.088C14.768 246.387 14.3667 246.616 13.9 246.774C13.424 246.924 12.892 246.998 12.304 246.998C11.7347 246.998 11.212 246.914 10.736 246.746C10.26 246.578 9.854 246.34 9.518 246.032C9.182 245.715 8.92533 245.328 8.748 244.87C8.56133 244.413 8.468 243.89 8.468 243.302C8.468 242.873 8.51933 242.472 8.622 242.098C8.72467 241.716 8.88333 241.38 9.098 241.09C9.31267 240.792 9.588 240.549 9.924 240.362C10.2507 240.166 10.6427 240.036 11.1 239.97L11.1 242.042C10.876 242.089 10.6753 242.229 10.498 242.462C10.3207 242.686 10.232 242.98 10.232 243.344C10.232 243.652 10.288 243.918 10.4 244.142C10.512 244.366 10.666 244.544 10.862 244.674C11.058 244.805 11.282 244.898 11.534 244.954C11.786 245.01 12.052 245.038 12.332 245.038C12.6307 245.038 12.906 245.006 13.158 244.94C13.4007 244.875 13.6153 244.777 13.802 244.646C13.9793 244.516 14.1193 244.343 14.222 244.128C14.3153 243.904 14.362 243.638 14.362 243.33ZM9.546 236.829C9.19133 236.53 8.92533 236.213 8.748 235.877C8.57067 235.532 8.482 235.121 8.482 234.645C8.482 234.524 8.48667 234.407 8.496 234.295C8.50533 234.183 8.51933 234.08 8.538 233.987L10.358 233.987C10.358 234.202 10.3627 234.421 10.372 234.645C10.372 234.86 10.3907 235.065 10.428 235.261C10.4653 235.457 10.526 235.648 10.61 235.835C10.6847 236.012 10.7967 236.171 10.946 236.311C11.1887 236.526 11.45 236.661 11.73 236.717C12.01 236.764 12.3273 236.787 12.682 236.787L16 236.787L16 238.761L8.622 238.761L8.622 236.941L9.546 236.829ZM16.112 229.698C16.112 230.893 15.776 231.812 15.104 232.456C14.4227 233.1 13.48 233.422 12.276 233.422C11.6973 233.422 11.1747 233.338 10.708 233.17C10.232 232.993 9.826 232.75 9.49 232.442C9.154 232.125 8.902 231.737 8.734 231.28C8.55666 230.813 8.468 230.286 8.468 229.698C8.468 229.119 8.55666 228.601 8.734 228.144C8.902 227.677 9.154 227.285 9.49 226.968C9.826 226.641 10.232 226.394 10.708 226.226C11.1747 226.049 11.6973 225.96 12.276 225.96C13.4893 225.96 14.432 226.287 15.104 226.94C15.776 227.584 16.112 228.503 16.112 229.698ZM10.232 229.698C10.232 230.305 10.428 230.753 10.82 231.042C11.212 231.331 11.702 231.476 12.29 231.476C12.8873 231.476 13.382 231.331 13.774 231.042C14.166 230.753 14.362 230.305 14.362 229.698C14.362 229.091 14.166 228.648 13.774 228.368C13.382 228.088 12.8873 227.948 12.29 227.948C11.702 227.948 11.212 228.088 10.82 228.368C10.428 228.648 10.232 229.091 10.232 229.698ZM16 222.719L16 224.693L6.088 224.693L6.088 222.719L16 222.719ZM16 219.178L16 221.152L6.088 221.152L6.088 219.178L16 219.178ZM15.174 208.419C15.4913 208.718 15.7247 209.054 15.874 209.427C16.014 209.791 16.0933 210.234 16.112 210.757C16.112 211.242 16.0373 211.69 15.888 212.101C15.7293 212.512 15.496 212.866 15.188 213.165C14.8147 213.52 14.3807 213.772 13.886 213.921C13.3913 214.061 12.8873 214.131 12.374 214.131C11.17 214.131 10.204 213.795 9.476 213.123C9.15866 212.824 8.91133 212.451 8.734 212.003C8.55666 211.555 8.468 211.046 8.468 210.477C8.468 210.048 8.53333 209.665 8.664 209.329C8.78533 208.984 8.96733 208.694 9.21 208.461L6.088 208.461L6.088 206.473L16 206.473L16 208.307L15.174 208.419ZM14.362 210.295C14.3433 209.698 14.1427 209.245 13.76 208.937C13.368 208.62 12.8873 208.461 12.318 208.461C11.702 208.461 11.2027 208.62 10.82 208.937C10.4373 209.254 10.2413 209.716 10.232 210.323C10.232 210.631 10.2833 210.902 10.386 211.135C10.4887 211.359 10.638 211.55 10.834 211.709C11.0207 211.858 11.24 211.97 11.492 212.045C11.7347 212.12 12.0007 212.157 12.29 212.157C12.598 212.157 12.878 212.12 13.13 212.045C13.3727 211.97 13.5873 211.858 13.774 211.709C13.9607 211.55 14.1053 211.354 14.208 211.121C14.3107 210.878 14.362 210.603 14.362 210.295ZM16.112 201.493C16.112 202.688 15.776 203.607 15.104 204.251C14.4227 204.895 13.48 205.217 12.276 205.217C11.6973 205.217 11.1747 205.133 10.708 204.965C10.232 204.788 9.826 204.545 9.49 204.237C9.154 203.92 8.902 203.532 8.734 203.075C8.55666 202.608 8.468 202.081 8.468 201.493C8.468 200.914 8.55666 200.396 8.734 199.939C8.902 199.472 9.154 199.08 9.49 198.763C9.826 198.436 10.232 198.189 10.708 198.021C11.1747 197.844 11.6973 197.755 12.276 197.755C13.4893 197.755 14.432 198.082 15.104 198.735C15.776 199.379 16.112 200.298 16.112 201.493ZM10.232 201.493C10.232 202.1 10.428 202.548 10.82 202.837C11.212 203.126 11.702 203.271 12.29 203.271C12.8873 203.271 13.382 203.126 13.774 202.837C14.166 202.548 14.362 202.1 14.362 201.493C14.362 200.886 14.166 200.443 13.774 200.163C13.382 199.883 12.8873 199.743 12.29 199.743C11.702 199.743 11.212 199.883 10.82 200.163C10.428 200.443 10.232 200.886 10.232 201.493ZM16 194.989L8.622 197.271L8.622 195.087L13.746 193.757L8.622 192.245L8.622 190.271L13.746 188.773L8.622 187.443L8.622 185.385L16 187.653L16 189.823L11.114 191.307L16 192.749L16 194.989ZM9.56 182.619C8.84133 182.021 8.47733 181.284 8.468 180.407C8.45866 179.931 8.538 179.511 8.706 179.147C8.86466 178.783 9.084 178.489 9.364 178.265C9.69066 177.994 10.0733 177.807 10.512 177.705C10.9413 177.602 11.422 177.551 11.954 177.551L16 177.551L16 179.539L12.108 179.539C11.8467 179.539 11.5993 179.567 11.366 179.623C11.1233 179.669 10.918 179.753 10.75 179.875C10.5727 179.996 10.442 180.159 10.358 180.365C10.274 180.561 10.232 180.785 10.232 181.037C10.2413 181.354 10.3113 181.625 10.442 181.849C10.5727 182.063 10.7407 182.227 10.946 182.339C11.142 182.451 11.366 182.53 11.618 182.577C11.8607 182.614 12.108 182.633 12.36 182.633L16 182.633L16 184.607L8.622 184.607L8.622 182.717L9.56 182.619Z" fill="white"/>
<path d="M8.622 170.696L8.622 168.428L9.672 168.428L9.672 170.696L13.508 170.696C13.7227 170.696 13.9233 170.687 14.11 170.668C14.2873 170.64 14.446 170.593 14.586 170.528C14.7167 170.453 14.824 170.351 14.908 170.22C14.9827 170.08 15.0247 169.893 15.034 169.66C15.034 169.445 14.9967 169.259 14.922 169.1C14.8473 168.932 14.7587 168.792 14.656 168.68L15.524 168.162C15.7293 168.405 15.874 168.657 15.958 168.918C16.042 169.179 16.084 169.469 16.084 169.786C16.084 170.187 16.028 170.523 15.916 170.794C15.7947 171.065 15.622 171.293 15.398 171.48C15.1833 171.639 14.9313 171.746 14.642 171.802C14.3527 171.858 14.026 171.886 13.662 171.886L9.672 171.886L9.672 173.09L8.622 173.09L8.622 171.886L6.41 171.886L6.40999 170.696L8.622 170.696ZM8.53799 163.759C8.53799 163.171 8.63133 162.663 8.818 162.233C9.00466 161.804 9.266 161.445 9.602 161.155C9.93799 160.857 10.3393 160.637 10.806 160.497C11.2633 160.348 11.7673 160.273 12.318 160.273C12.8687 160.273 13.3773 160.348 13.844 160.497C14.3013 160.637 14.698 160.857 15.034 161.155C15.3607 161.445 15.6173 161.809 15.804 162.247C15.9907 162.686 16.084 163.199 16.084 163.787C16.084 164.375 15.9907 164.889 15.804 165.327C15.6173 165.757 15.3607 166.121 15.034 166.419C14.698 166.709 14.3013 166.928 13.844 167.077C13.3773 167.217 12.8687 167.287 12.318 167.287C11.7673 167.287 11.2633 167.217 10.806 167.077C10.3393 166.928 9.938 166.709 9.602 166.419C9.266 166.121 9.00466 165.747 8.818 165.299C8.63133 164.851 8.53799 164.338 8.53799 163.759ZM15.034 163.787C15.034 163.386 14.964 163.041 14.824 162.751C14.684 162.453 14.4927 162.21 14.25 162.023C13.998 161.827 13.7087 161.687 13.382 161.603C13.0553 161.51 12.7007 161.463 12.318 161.463C11.9447 161.463 11.5947 161.51 11.268 161.603C10.932 161.687 10.6427 161.827 10.4 162.023C10.148 162.21 9.952 162.453 9.812 162.751C9.672 163.041 9.602 163.386 9.602 163.787C9.602 164.189 9.672 164.534 9.812 164.823C9.952 165.113 10.148 165.355 10.4 165.551C10.6427 165.738 10.932 165.878 11.268 165.971C11.5947 166.055 11.9447 166.097 12.318 166.097C12.7007 166.097 13.0553 166.055 13.382 165.971C13.7087 165.878 13.998 165.738 14.25 165.551C14.4927 165.355 14.684 165.113 14.824 164.823C14.964 164.534 15.034 164.189 15.034 163.787ZM16 154.908L6.10199 154.908L6.10199 153.718L16 153.718L16 154.908ZM12.752 150.921C13.0787 150.893 13.382 150.828 13.662 150.725C13.9327 150.613 14.1707 150.464 14.376 150.277C14.5813 150.091 14.7447 149.862 14.866 149.591C14.978 149.311 15.034 148.989 15.034 148.625C15.034 148.448 15.02 148.266 14.992 148.079C14.9547 147.883 14.8987 147.701 14.824 147.533C14.74 147.365 14.6327 147.216 14.502 147.085C14.3713 146.955 14.2127 146.857 14.026 146.791L14.026 145.573C14.3807 145.657 14.6887 145.802 14.95 146.007C15.2113 146.203 15.426 146.441 15.594 146.721C15.762 146.992 15.888 147.295 15.972 147.631C16.0467 147.967 16.084 148.308 16.084 148.653C16.084 149.241 15.9907 149.755 15.804 150.193C15.6173 150.623 15.3607 150.982 15.034 151.271C14.698 151.561 14.3013 151.775 13.844 151.915C13.3773 152.055 12.8687 152.125 12.318 152.125C11.7673 152.125 11.2633 152.051 10.806 151.901C10.3393 151.743 9.93799 151.519 9.60199 151.229C9.26599 150.94 9.00466 150.585 8.81799 150.165C8.63133 149.745 8.53799 149.246 8.53799 148.667C8.53799 148.079 8.65466 147.571 8.88799 147.141C9.12133 146.712 9.42933 146.367 9.81199 146.105C10.1853 145.844 10.5913 145.662 11.03 145.559C11.4687 145.447 11.8747 145.401 12.248 145.419C12.332 145.419 12.416 145.424 12.5 145.433C12.584 145.433 12.668 145.438 12.752 145.447L12.752 150.921ZM11.716 146.623C11.0907 146.642 10.582 146.838 10.19 147.211C9.79799 147.585 9.60199 148.084 9.60199 148.709C9.60199 149.055 9.65799 149.358 9.76999 149.619C9.88199 149.881 10.036 150.1 10.232 150.277C10.428 150.455 10.6567 150.595 10.918 150.697C11.17 150.8 11.436 150.865 11.716 150.893L11.716 146.623ZM15.062 138.962C15.2767 139.12 15.4493 139.302 15.58 139.508C15.7107 139.713 15.8133 139.928 15.888 140.152C15.9627 140.366 16.014 140.586 16.042 140.81C16.07 141.024 16.084 141.239 16.084 141.454C16.084 141.799 16.042 142.126 15.958 142.434C15.874 142.742 15.7387 143.022 15.552 143.274C15.3653 143.516 15.132 143.712 14.852 143.862C14.572 144.002 14.2547 144.072 13.9 144.072C13.48 144.072 13.13 143.997 12.85 143.848C12.5607 143.689 12.3273 143.479 12.15 143.218C11.9727 142.956 11.8513 142.658 11.786 142.322C11.7113 141.976 11.674 141.612 11.674 141.23L11.674 139.06C11.0487 139.06 10.554 139.195 10.19 139.466C9.81666 139.736 9.62066 140.194 9.60199 140.838C9.60199 141.23 9.66733 141.575 9.79799 141.874C9.92866 142.172 10.1433 142.378 10.442 142.49L10.442 143.764C10.106 143.698 9.82133 143.568 9.58799 143.372C9.34533 143.176 9.14933 142.942 8.99999 142.672C8.84133 142.401 8.72466 142.107 8.64999 141.79C8.57533 141.472 8.53799 141.155 8.53799 140.838C8.53799 140.287 8.63133 139.825 8.81799 139.452C8.99533 139.069 9.23333 138.761 9.53199 138.528C9.82133 138.294 10.176 138.131 10.596 138.038C11.016 137.944 11.4873 137.898 12.01 137.898L16 137.898L16 138.892L15.062 138.962ZM12.668 140.362C12.668 140.586 12.6727 140.847 12.682 141.146C12.682 141.435 12.71 141.715 12.766 141.986C12.822 142.256 12.9387 142.476 13.116 142.644C13.2933 142.802 13.5267 142.882 13.816 142.882C14.0307 142.882 14.2127 142.84 14.362 142.756C14.5113 142.672 14.6373 142.56 14.74 142.42C14.8427 142.27 14.9173 142.102 14.964 141.916C15.0107 141.729 15.034 141.538 15.034 141.342C15.034 140.642 14.866 140.091 14.53 139.69C14.1847 139.279 13.6853 139.069 13.032 139.06L12.668 139.06L12.668 140.362ZM16 136.054L8.62199 136.054L8.62199 134.906L9.76999 134.85C9.34066 134.58 9.02799 134.234 8.83199 133.814C8.63599 133.394 8.53799 132.918 8.53799 132.386L8.53799 132.008L9.65799 132.008L9.65799 132.442C9.65799 132.881 9.73266 133.254 9.88199 133.562C10.022 133.87 10.218 134.122 10.47 134.318C10.7127 134.505 11.002 134.645 11.338 134.738C11.674 134.822 12.0287 134.864 12.402 134.864L16 134.864L16 136.054ZM16 130.832L8.62199 130.832L8.62199 129.684L9.74199 129.628C9.53666 129.506 9.35933 129.357 9.20999 129.18C9.06066 128.993 8.93466 128.792 8.83199 128.578C8.72933 128.363 8.65466 128.139 8.60799 127.906C8.56133 127.663 8.53799 127.43 8.53799 127.206C8.53799 126.674 8.62666 126.226 8.80399 125.862C8.97199 125.498 9.20999 125.208 9.51799 124.994C9.81666 124.779 10.176 124.625 10.596 124.532C11.0067 124.438 11.45 124.392 11.926 124.392L16 124.392L16 125.582L12.248 125.582C11.9027 125.582 11.5713 125.605 11.254 125.652C10.9367 125.689 10.6567 125.773 10.414 125.904C10.162 126.025 9.96133 126.202 9.81199 126.436C9.66266 126.669 9.58799 126.982 9.58799 127.374C9.59733 127.756 9.69066 128.097 9.86799 128.396C10.0453 128.685 10.2553 128.918 10.498 129.096C10.806 129.31 11.1467 129.455 11.52 129.53C11.884 129.604 12.2527 129.642 12.626 129.642L16 129.642L16 130.832ZM9.50399 117.583C9.17733 117.349 8.93466 117.065 8.77599 116.729C8.61733 116.383 8.53799 116.001 8.53799 115.581C8.54733 115.067 8.65933 114.652 8.87399 114.335C9.08866 114.017 9.37333 113.779 9.72799 113.621C9.35466 113.369 9.06533 113.061 8.85999 112.697C8.64533 112.323 8.53799 111.885 8.53799 111.381C8.53799 110.979 8.60799 110.634 8.74799 110.345C8.87866 110.055 9.06533 109.822 9.30799 109.645C9.54133 109.467 9.81666 109.337 10.134 109.253C10.4513 109.169 10.7967 109.127 11.17 109.127L16 109.127L16 110.317L11.772 110.317C11.5293 110.317 11.282 110.331 11.03 110.359C10.7687 110.377 10.5353 110.433 10.33 110.527C10.1153 110.62 9.94266 110.76 9.81199 110.947C9.67199 111.133 9.60199 111.385 9.60199 111.703C9.60199 112.011 9.67666 112.272 9.82599 112.487C9.96599 112.701 10.1527 112.874 10.386 113.005C10.6193 113.126 10.876 113.215 11.156 113.271C11.436 113.327 11.7113 113.355 11.982 113.355L16 113.355L16 114.545L11.758 114.545C11.5247 114.545 11.282 114.554 11.03 114.573C10.7687 114.591 10.5353 114.647 10.33 114.741C10.1153 114.825 9.94266 114.955 9.81199 115.133C9.67199 115.31 9.60199 115.557 9.60199 115.875C9.60199 116.211 9.67666 116.491 9.82599 116.715C9.97533 116.929 10.1667 117.107 10.4 117.247C10.6333 117.377 10.8947 117.471 11.184 117.527C11.464 117.573 11.7347 117.597 11.996 117.597L16 117.597L16 118.787L8.62199 118.787L8.62199 117.639L9.50399 117.583ZM8.53799 104.068C8.53799 103.48 8.63133 102.971 8.81799 102.542C9.00466 102.113 9.26599 101.753 9.60199 101.464C9.93799 101.165 10.3393 100.946 10.806 100.806C11.2633 100.657 11.7673 100.582 12.318 100.582C12.8687 100.582 13.3773 100.657 13.844 100.806C14.3013 100.946 14.698 101.165 15.034 101.464C15.3607 101.753 15.6173 102.117 15.804 102.556C15.9907 102.995 16.084 103.508 16.084 104.096C16.084 104.684 15.9907 105.197 15.804 105.636C15.6173 106.065 15.3607 106.429 15.034 106.728C14.698 107.017 14.3013 107.237 13.844 107.386C13.3773 107.526 12.8687 107.596 12.318 107.596C11.7673 107.596 11.2633 107.526 10.806 107.386C10.3393 107.237 9.93799 107.017 9.60199 106.728C9.26599 106.429 9.00466 106.056 8.81799 105.608C8.63133 105.16 8.53799 104.647 8.53799 104.068ZM15.034 104.096C15.034 103.695 14.964 103.349 14.824 103.06C14.684 102.761 14.4927 102.519 14.25 102.332C13.998 102.136 13.7087 101.996 13.382 101.912C13.0553 101.819 12.7007 101.772 12.318 101.772C11.9447 101.772 11.5947 101.819 11.268 101.912C10.932 101.996 10.6427 102.136 10.4 102.332C10.148 102.519 9.95199 102.761 9.81199 103.06C9.67199 103.349 9.60199 103.695 9.60199 104.096C9.60199 104.497 9.67199 104.843 9.81199 105.132C9.95199 105.421 10.148 105.664 10.4 105.86C10.6427 106.047 10.932 106.187 11.268 106.28C11.5947 106.364 11.9447 106.406 12.318 106.406C12.7007 106.406 13.0553 106.364 13.382 106.28C13.7087 106.187 13.998 106.047 14.25 105.86C14.4927 105.664 14.684 105.421 14.824 105.132C14.964 104.843 15.034 104.497 15.034 104.096ZM16 98.9897L8.62199 98.9897L8.62199 97.8417L9.76999 97.7857C9.34066 97.5151 9.02799 97.1697 8.83199 96.7497C8.63599 96.3297 8.53799 95.8537 8.53799 95.3217L8.53799 94.9437L9.65799 94.9437L9.65799 95.3777C9.65799 95.8164 9.73266 96.1897 9.88199 96.4977C10.022 96.8057 10.218 97.0577 10.47 97.2537C10.7127 97.4404 11.002 97.5804 11.338 97.6737C11.674 97.7577 12.0287 97.7997 12.402 97.7997L16 97.7997L16 98.9897ZM12.752 92.9798C13.0787 92.9518 13.382 92.8865 13.662 92.7838C13.9327 92.6718 14.1707 92.5225 14.376 92.3358C14.5813 92.1491 14.7447 91.9205 14.866 91.6498C14.978 91.3698 15.034 91.0478 15.034 90.6838C15.034 90.5065 15.02 90.3245 14.992 90.1378C14.9547 89.9418 14.8987 89.7598 14.824 89.5918C14.74 89.4238 14.6327 89.2745 14.502 89.1438C14.3713 89.0131 14.2127 88.9151 14.026 88.8498L14.026 87.6318C14.3807 87.7158 14.6887 87.8605 14.95 88.0658C15.2113 88.2618 15.426 88.4998 15.594 88.7798C15.762 89.0505 15.888 89.3538 15.972 89.6898C16.0467 90.0258 16.084 90.3665 16.084 90.7118C16.084 91.2998 15.9907 91.8131 15.804 92.2518C15.6173 92.6811 15.3607 93.0405 15.034 93.3298C14.698 93.6191 14.3013 93.8338 13.844 93.9738C13.3773 94.1138 12.8687 94.1838 12.318 94.1838C11.7673 94.1838 11.2633 94.1091 10.806 93.9598C10.3393 93.8011 9.93799 93.5771 9.60199 93.2878C9.26599 92.9985 9.00466 92.6438 8.81799 92.2238C8.63132 91.8038 8.53799 91.3045 8.53799 90.7258C8.53799 90.1378 8.65466 89.6291 8.88799 89.1998C9.12133 88.7705 9.42932 88.4251 9.81199 88.1638C10.1853 87.9025 10.5913 87.7205 11.03 87.6178C11.4687 87.5058 11.8747 87.4591 12.248 87.4778C12.332 87.4778 12.416 87.4825 12.5 87.4918C12.584 87.4918 12.668 87.4965 12.752 87.5058L12.752 92.9798ZM11.716 88.6818C11.0907 88.7005 10.582 88.8965 10.19 89.2698C9.79799 89.6431 9.60199 90.1425 9.60199 90.7678C9.60199 91.1131 9.65799 91.4165 9.76999 91.6778C9.88199 91.9391 10.036 92.1585 10.232 92.3358C10.428 92.5131 10.6567 92.6531 10.918 92.7558C11.17 92.8585 11.436 92.9238 11.716 92.9518L11.716 88.6818Z" fill="#757575"/>
<path d="M10.9393 322.618C11.5251 323.204 12.4749 323.204 13.0607 322.618L22.6066 313.072C23.1924 312.486 23.1924 311.537 22.6066 310.951C22.0208 310.365 21.0711 310.365 20.4853 310.951L12 319.436L3.51472 310.951C2.92893 310.365 1.97919 310.365 1.3934 310.951C0.807614 311.537 0.807614 312.486 1.3934 313.072L10.9393 322.618ZM10.5 266.473L10.5 321.558L13.5 321.558L13.5 266.473L10.5 266.473Z" fill="white"/>
<path d="M33.5001 0.5L33.5001 321.558" stroke="#757575"/>
<rect x="33" y="178" width="1" height="77" fill="white"/>
</svg>
