<svg width="200" height="200" viewBox="0 0 200 200" fill="none" xmlns="http://www.w3.org/2000/svg">
  <path
    d="M112.373 177H152C158.627 177 164 171.627 164 165V64.1269C164 60.8319 162.645 57.6819 160.253 55.4157L120.011 17.2888C117.782 15.177 114.828 14 111.757 14H48C41.3726 14 36 19.3726 36 26V128.529"
    stroke="#1B1B1B" stroke-width="3" />
  <path d="M60 82H141" stroke="#59BD39" stroke-width="3" />
  <path d="M60 100H117" stroke="#59BD39" stroke-width="3" />
  <path
    d="M36 141H89C95.6274 141 101 146.373 101 153V174C101 180.627 95.6274 186 89 186H48C41.3726 186 36 180.627 36 174V150.141"
    stroke="#1B1B1B" stroke-width="3" />
  <path d="M54 141V136C54 129.373 59.3726 124 66 124H70C76.6274 124 82 129.373 82 136V141"
    stroke="#1B1B1B" stroke-width="3" />
</svg>