<svg width="268" height="40" viewBox="0 0 268 40" fill="none" xmlns="http://www.w3.org/2000/svg">
<rect x="0.5" y="0.5" width="267" height="39" rx="5.5" fill="white" stroke="#EAEDF3"/>
<path opacity="0.4" d="M0 6C0 2.68629 2.68629 0 6 0H12V40H6C2.68629 40 0 37.3137 0 34V6Z" fill="#D4F3E4"/>
<path opacity="0.4" d="M256 0H262C265.314 0 268 2.68629 268 6V34C268 37.3137 265.314 40 262 40H256V0Z" fill="#D4F3E4"/>
<path opacity="0.3" d="M0 28H268V34C268 37.3137 265.314 40 262 40H5.99999C2.68629 40 0 37.3137 0 34V28Z" fill="#D4F3E4"/>
<path opacity="0.3" d="M268 12L0 12V6C0 2.68629 2.68628 0 6 0L262 0C265.314 0 268 2.68629 268 6V12Z" fill="#D4F3E4"/>
<line opacity="0.2" x1="1" y1="28.5" x2="267" y2="28.5" stroke="#01B075" stroke-dasharray="2 2"/>
<line opacity="0.2" x1="1" y1="11.5" x2="267" y2="11.5" stroke="#01B075" stroke-dasharray="2 2"/>
<line opacity="0.2" x1="11.5" y1="2.18557e-08" x2="11.5" y2="40" stroke="#01B075" stroke-dasharray="2 2"/>
<line opacity="0.2" x1="256.5" y1="2.18557e-08" x2="256.5" y2="40" stroke="#01B075" stroke-dasharray="2 2"/>
<path d="M15.3332 17.8214C15.3332 17.6868 15.4017 17.5522 15.4702 17.4849C15.6757 17.283 16.0182 17.283 16.2237 17.4849L19.9913 21.3882L23.8274 17.4849C23.9644 17.283 24.3069 17.283 24.5124 17.4849C24.7179 17.6868 24.7179 18.0233 24.5124 18.2252L20.3338 22.5322C20.2653 22.5995 20.1283 22.6668 19.9913 22.6668C19.8543 22.6668 19.7173 22.5995 19.6488 22.5322L15.5387 18.2252C15.4017 18.0906 15.3332 17.956 15.3332 17.8214Z" fill="#ABB6C3"/>
</svg>
