<svg width="1em" height="1em" viewBox="0 0 20 20" fill="none" xmlns="http://www.w3.org/2000/svg">
<path fill-rule="evenodd" clip-rule="evenodd" d="M17.5 6.66667V12.4408C17.5 13.5458 17.061 14.6057 16.2796 15.3871L15.3871 16.2796C14.6057 17.061 13.5458 17.5 12.4408 17.5H6.66667C4.36548 17.5 2.5 15.6345 2.5 13.3333V6.66667C2.5 4.36548 4.36548 2.5 6.66667 2.5H13.3333C15.6345 2.5 17.5 4.36548 17.5 6.66667Z" stroke="currentColor"  stroke-linecap="round" stroke-linejoin="round"/>
<path d="M6.66663 6.66667H8.74996" stroke="currentColor"  stroke-linecap="round" stroke-linejoin="round"/>
<path d="M6.66663 9.58332L8.74996 9.58324" stroke="currentColor"  stroke-linecap="round" stroke-linejoin="round"/>
<path d="M6.66663 12.5H8.74996" stroke="currentColor"  stroke-linecap="round" stroke-linejoin="round"/>
<path d="M17.5 12.5H15C13.6193 12.5 12.5 13.6193 12.5 15V17.5" stroke="currentColor"  stroke-linecap="round" stroke-linejoin="round"/>
</svg>
