<svg width="1em" height="1em" viewBox="0 0 20 20" fill="none" xmlns="http://www.w3.org/2000/svg">
<path fill-rule="evenodd" clip-rule="evenodd" d="M15.8333 17.5H4.16667C3.24583 17.5 2.5 16.7542 2.5 15.8333V4.16667C2.5 3.24583 3.24583 2.5 4.16667 2.5H15.8333C16.7542 2.5 17.5 3.24583 17.5 4.16667V15.8333C17.5 16.7542 16.7542 17.5 15.8333 17.5Z" stroke="currentColor"  stroke-linecap="round" stroke-linejoin="round"/>
<path d="M2.5 12.5H6.15167C6.4675 12.5 6.75583 12.6783 6.89667 12.9608L7.26917 13.7058C7.41083 13.9883 7.69917 14.1667 8.015 14.1667H11.985C12.3008 14.1667 12.5892 13.9883 12.73 13.7058L13.1025 12.9608C13.2442 12.6783 13.5325 12.5 13.8483 12.5H17.5" stroke="currentColor"  stroke-linecap="round" stroke-linejoin="round"/>
</svg>
