<svg width="1em" height="1em" viewBox="0 0 20 20" fill="none" xmlns="http://www.w3.org/2000/svg">
  <path fill-rule="evenodd" clip-rule="evenodd" d="M15.244 16.4226L17.6726 13.994C17.8289 13.8377 17.9167 13.6257 17.9167 13.4047C17.9167 13.1837 17.8289 12.9717 17.6726 12.8155L16.7678 11.9107C16.4423 11.5853 15.9147 11.5853 15.5893 11.9107L13.1608 14.3392C13.0045 14.4955 12.9167 14.7074 12.9167 14.9285V16.4583C12.9167 16.5734 13.01 16.6666 13.125 16.6666H14.6548C14.8758 16.6666 15.0878 16.5788 15.244 16.4226Z" stroke="currentColor"  stroke-linecap="round" stroke-linejoin="round"/>
  <path d="M8.33335 11.6667L6.66669 10L8.33335 8.33337" stroke="currentColor"  stroke-linecap="round" stroke-linejoin="round"/>
  <path d="M10.8333 8.33337L12.5 10L10.8333 11.6667" stroke="currentColor"  stroke-linecap="round" stroke-linejoin="round"/>
  <path d="M10 17.5H6.66667C4.36548 17.5 2.5 15.6345 2.5 13.3333V6.66667C2.5 4.36548 4.36548 2.5 6.66667 2.5H13.3333C15.6345 2.5 17.5 4.36548 17.5 6.66667V9.16667" stroke="currentColor"  stroke-linecap="round" stroke-linejoin="round"/>
  </svg>
  