<svg width="1em" height="1em" viewBox="0 0 20 20" fill="none" xmlns="http://www.w3.org/2000/svg">
<path fill-rule="evenodd" clip-rule="evenodd" d="M16.6563 5.88365H14.9629C14.7383 5.88372 14.5229 5.79453 14.3641 5.63573C14.2053 5.47693 14.1162 5.26153 14.1162 5.03695V3.34353C14.1162 3.11895 14.2053 2.90355 14.3641 2.74475C14.5229 2.58595 14.7383 2.49676 14.9629 2.49683H16.6563C16.8809 2.49676 17.0963 2.58595 17.2551 2.74475C17.4139 2.90355 17.5031 3.11895 17.503 3.34353V5.03695C17.5031 5.26153 17.4139 5.47693 17.2551 5.63573C17.0963 5.79453 16.8809 5.88372 16.6563 5.88365Z" stroke="currentColor"  stroke-linecap="round" stroke-linejoin="round"/>
<path d="M14.1163 4.19028H6.66528" stroke="currentColor"  stroke-linecap="round" stroke-linejoin="round"/>
<path d="M15.8097 13.3412V5.89014" stroke="currentColor"  stroke-linecap="round" stroke-linejoin="round"/>
<path fill-rule="evenodd" clip-rule="evenodd" d="M10.8113 14.937H7.12368L4.72852 17.282C4.48859 17.5169 4.13122 17.5851 3.82163 17.4551C3.51205 17.325 3.31059 17.0221 3.31042 16.6863V7.51954C3.31057 7.18307 3.51281 6.87963 3.82329 6.74999C4.13378 6.62035 4.49175 6.68989 4.73112 6.92635L11.3977 13.5099C11.6383 13.7476 11.7115 14.1072 11.583 14.4201C11.4544 14.733 11.1496 14.9372 10.8113 14.937V14.937Z" stroke="currentColor"  stroke-linecap="round" stroke-linejoin="round"/>
</svg>
