<svg width="1em" height="1em" viewBox="0 0 20 20" fill="none" xmlns="http://www.w3.org/2000/svg">
<path fill-rule="evenodd" clip-rule="evenodd" d="M15.3333 6.66667L4.66667 6.66667C4.29867 6.66667 4 6.368 4 6V4.66667C4 4.29867 4.29867 4 4.66667 4L15.3333 4C15.7013 4 16 4.29867 16 4.66667V6C16 6.368 15.7013 6.66667 15.3333 6.66667Z" stroke="currentColor"  stroke-linecap="round" stroke-linejoin="round"/>
<path fill-rule="evenodd" clip-rule="evenodd" d="M9.66667 11.3332H4.33333C4.14933 11.3332 4 11.0345 4 10.6665V9.33317C4 8.96517 4.14933 8.6665 4.33333 8.6665L9.66667 8.6665C9.85067 8.6665 10 8.96517 10 9.33317V10.6665C10 11.0345 9.85067 11.3332 9.66667 11.3332Z" stroke="currentColor"  stroke-linecap="round" stroke-linejoin="round"/>
<path fill-rule="evenodd" clip-rule="evenodd" d="M15.3333 16.0002H4.66667C4.29867 16.0002 4 15.7015 4 15.3335V14.0002C4 13.6322 4.29867 13.3335 4.66667 13.3335L15.3333 13.3335C15.7013 13.3335 16 13.6322 16 14.0002V15.3335C16 15.7015 15.7013 16.0002 15.3333 16.0002Z" stroke="currentColor"  stroke-linecap="round" stroke-linejoin="round"/>
</svg>
