<svg width="200" height="200" viewBox="0 0 200 200" fill="none" xmlns="http://www.w3.org/2000/svg">
  <path fill-rule="evenodd" clip-rule="evenodd"
    d="M101.5 116V70H99.5V116H101.5ZM101.5 130V124H99.5V130H101.5Z" fill="#59BD39" />
  <path
    d="M165.5 100C165.5 116.787 159.104 132.943 147.612 145.18C136.121 157.417 120.398 164.816 103.644 165.87C86.8906 166.924 70.3647 161.554 57.4302 150.854C44.4957 140.154 36.1246 124.927 34.0206 108.272C31.9167 91.6177 36.238 74.7873 46.1051 61.2064C55.9722 47.6255 70.6435 38.3148 87.133 35.1692C103.623 32.0237 120.691 35.2797 134.865 44.2746C149.038 53.2694 159.252 67.3272 163.427 83.5867"
    stroke="#1B1B1B" stroke-width="2" />
</svg>