<svg width="268" height="72" viewBox="0 0 268 72" fill="none" xmlns="http://www.w3.org/2000/svg">
<rect x="0.5" y="0.5" width="267" height="71" rx="5.5" fill="white" stroke="#EAEDF3"/>
<path opacity="0.4" d="M0 33C0 29.6863 2.68629 27 6 27H12V72H6C2.68629 72 0 69.3137 0 66V33Z" fill="#D4F3E4"/>
<path opacity="0.4" d="M256 27H262C265.314 27 268 29.6863 268 33V66C268 69.3137 265.314 72 262 72H256V27Z" fill="#D4F3E4"/>
<path opacity="0.3" d="M0 60H268V66C268 69.3137 265.314 72 262 72H6C2.68629 72 0 69.3137 0 66V60Z" fill="#D4F3E4"/>
<path opacity="0.3" d="M0 27H268V33C268 36.3137 265.314 39 262 39H6C2.68629 39 0 36.3137 0 33V27Z" fill="#D4F3E4"/>
<path d="M15.3333 17.8212C15.3333 17.6866 15.4018 17.552 15.4703 17.4847C15.6758 17.2828 16.0183 17.2828 16.2238 17.4847L19.9914 21.3879L23.8275 17.4847C23.9645 17.2828 24.307 17.2828 24.5125 17.4847C24.718 17.6866 24.718 18.0231 24.5125 18.2249L20.3339 22.532C20.2654 22.5993 20.1284 22.6666 19.9914 22.6666C19.8544 22.6666 19.7174 22.5993 19.6489 22.532L15.5388 18.2249C15.4018 18.0903 15.3333 17.9558 15.3333 17.8212Z" fill="#ABB6C3"/>
<line opacity="0.2" x1="1" y1="60.5" x2="267" y2="60.5" stroke="#01B075" stroke-dasharray="2 2"/>
<line opacity="0.2" x1="1" y1="38.5" x2="267" y2="38.5" stroke="#01B075" stroke-dasharray="2 2"/>
<line opacity="0.2" x1="1" y1="27.5" x2="267" y2="27.5" stroke="#01B075" stroke-dasharray="2 2"/>
<path opacity="0.2" d="M11.5 26.5L11.5 72" stroke="#01B075" stroke-dasharray="2 2"/>
<path opacity="0.2" d="M256.5 27L256.5 72" stroke="#01B075" stroke-dasharray="2 2"/>
</svg>
