<svg width="80" height="80" viewBox="0 0 80 80" fill="none" xmlns="http://www.w3.org/2000/svg">
<g id="Illustration / empty-denyed">
<path id="Union" fill-rule="evenodd" clip-rule="evenodd" d="M30.2971 36.75C29.4357 36.75 28.5876 36.9619 27.8275 37.3671L12.2953 45.6465H25.5082C27.9234 45.6465 29.8812 47.6043 29.8812 50.0195C29.8812 51.6062 31.1675 52.8925 32.7542 52.8925H39.8H46.8458C48.4325 52.8925 49.7188 51.6062 49.7188 50.0195C49.7188 47.6043 51.6766 45.6465 54.0918 45.6465H64.4271L51.5065 37.5511C50.671 37.0276 49.705 36.75 48.7191 36.75H39.8V35.25H48.7191C49.9867 35.25 51.2287 35.607 52.3029 36.28L68.3982 46.3644L68.255 46.5929C70.2318 47.7701 71.5562 49.9286 71.5562 52.3965V60.4018C71.5562 64.1297 68.5341 67.1518 64.8062 67.1518H39.8H14.7938C11.0659 67.1518 8.04382 64.1297 8.04382 60.4018V50.177H9.54382V60.4018C9.54382 63.3013 11.8943 65.6518 14.7938 65.6518H39.8H64.8062C67.7057 65.6518 70.0562 63.3013 70.0562 60.4018V52.3965C70.0562 49.497 67.7057 47.1465 64.8062 47.1465H54.0918C52.5051 47.1465 51.2188 48.4328 51.2188 50.0195C51.2188 52.4346 49.2609 54.3925 46.8458 54.3925H39.8H32.7542C30.3391 54.3925 28.3812 52.4346 28.3812 50.0195C28.3812 48.4328 27.0949 47.1465 25.5082 47.1465H8.79382V45.6465H9.10641L27.1219 36.0434C28.0992 35.5225 29.1896 35.25 30.2971 35.25H39.8V36.75H30.2971Z" fill="#1B1B1B"/>
<path id="Vector 662" d="M40 31.2V12.8" stroke="#59BD39" stroke-width="1.5"/>
<path id="Vector 663" d="M46.6746 30.5254L55.7255 21.4744" stroke="#59BD39" stroke-width="1.5"/>
<path id="Vector 664" d="M24.2745 21.4746L33.3255 30.5256" stroke="#59BD39" stroke-width="1.5"/>
</g>
</svg>
