<svg width="1em" height="1em" viewBox="0 0 20 20" fill="none" xmlns="http://www.w3.org/2000/svg">
<path d="M10 15.8329C9.29833 15.8329 8.59583 15.6845 7.91333 15.4204" stroke="currentColor"  stroke-linecap="round" stroke-linejoin="round"/>
<path d="M17.4017 10.3896C15.825 13.3055 12.9125 15.833 10 15.833" stroke="currentColor"  stroke-linecap="round" stroke-linejoin="round"/>
<path d="M15.8992 7.43408C16.475 8.10825 16.9867 8.84325 17.4017 9.61075C17.5325 9.85325 17.5325 10.1474 17.4017 10.3899" stroke="currentColor"  stroke-linecap="round" stroke-linejoin="round"/>
<path d="M4.16675 15.8332L15.8334 4.1665" stroke="currentColor"  stroke-linecap="round" stroke-linejoin="round"/>
<path d="M8.14424 11.8558C7.11924 10.8308 7.11924 9.16826 8.14424 8.14326C9.16924 7.11826 10.8317 7.11826 11.8567 8.14326" stroke="currentColor"  stroke-linecap="round" stroke-linejoin="round"/>
<path d="M14.2034 5.7965C12.9142 4.799 11.4567 4.1665 10 4.1665C7.08754 4.1665 4.17504 6.694 2.59837 9.61067C2.46754 9.85317 2.46754 10.1473 2.59837 10.3898C3.3867 11.8473 4.50837 13.2073 5.7967 14.204" stroke="currentColor"  stroke-linecap="round" stroke-linejoin="round"/>
</svg>
