<svg width="1em" height="1em" viewBox="0 0 20 20" fill="none" xmlns="http://www.w3.org/2000/svg">
<path fill-rule="evenodd" clip-rule="evenodd" d="M2.59837 10.389C2.46754 10.1465 2.46754 9.85234 2.59837 9.60984C4.17504 6.694 7.08754 4.1665 10 4.1665C12.9125 4.1665 15.825 6.694 17.4017 9.61067C17.5325 9.85317 17.5325 10.1473 17.4017 10.3898C15.825 13.3057 12.9125 15.8332 10 15.8332C7.08754 15.8332 4.17504 13.3057 2.59837 10.389Z" stroke="currentColor"  stroke-linecap="round" stroke-linejoin="round"/>
<path d="M11.7678 8.23223C12.7441 9.20854 12.7441 10.7915 11.7678 11.7678C10.7915 12.7441 9.20854 12.7441 8.23223 11.7678C7.25592 10.7915 7.25592 9.20854 8.23223 8.23223C9.20854 7.25592 10.7915 7.25592 11.7678 8.23223" stroke="currentColor"  stroke-linecap="round" stroke-linejoin="round"/>
</svg>
