<svg width="1em" height="1em" viewBox="0 0 20 20" fill="none" xmlns="http://www.w3.org/2000/svg">
<path fill-rule="evenodd" clip-rule="evenodd" d="M2.5 10.8333V5C2.5 3.61929 3.61929 2.5 5 2.5H15C16.3807 2.5 17.5 3.61929 17.5 5V10.8333C17.5 12.214 16.3807 13.3333 15 13.3333H5C3.61929 13.3333 2.5 12.214 2.5 10.8333Z" stroke="currentColor"  stroke-linecap="round" stroke-linejoin="round"/>
<path fill-rule="evenodd" clip-rule="evenodd" d="M8.43546 9.45756V6.37576C8.4355 6.18218 8.53882 6.00334 8.7065 5.90661C8.87418 5.80988 9.08073 5.80997 9.24832 5.90684L11.9148 7.44774C12.0823 7.5445 12.1855 7.72324 12.1855 7.91666C12.1855 8.11009 12.0823 8.28883 11.9148 8.38559L9.24833 9.92649C9.08073 10.0234 8.87418 10.0235 8.7065 9.92672C8.53882 9.82999 8.4355 9.65114 8.43546 9.45756V9.45756Z" stroke="currentColor"  stroke-linecap="round" stroke-linejoin="round"/>
<path d="M16.6667 16.6667H8.33334" stroke="currentColor"  stroke-linecap="round" stroke-linejoin="round"/>
<path d="M3.33334 16.6667H5.83334" stroke="currentColor"  stroke-linecap="round" stroke-linejoin="round"/>
<path d="M5.83333 17.5V15.8333" stroke="currentColor"  stroke-linecap="round" stroke-linejoin="round"/>
</svg>
