<svg width="268" height="40" viewBox="0 0 268 40" fill="none" xmlns="http://www.w3.org/2000/svg">
<rect x="0.5" y="0.5" width="267" height="39" rx="5.5" fill="white" stroke="#EAEDF3"/>
<path opacity="0.4" d="M28 0H40V40H28V0Z" fill="#D4F3E4"/>
<path opacity="0.4" d="M228 0H240V40H228V0Z" fill="#D4F3E4"/>
<path d="M15.3332 17.8214C15.3332 17.6868 15.4017 17.5522 15.4702 17.4849C15.6757 17.283 16.0182 17.283 16.2237 17.4849L19.9913 21.3882L23.8274 17.4849C23.9644 17.283 24.3069 17.283 24.5124 17.4849C24.7179 17.6868 24.7179 18.0233 24.5124 18.2252L20.3338 22.5322C20.2653 22.5995 20.1283 22.6668 19.9913 22.6668C19.8543 22.6668 19.7173 22.5995 19.6488 22.5322L15.5387 18.2252C15.4017 18.0906 15.3332 17.956 15.3332 17.8214Z" fill="#ABB6C3"/>
<path d="M15.3332 17.8214C15.3332 17.6868 15.4017 17.5522 15.4702 17.4849C15.6757 17.283 16.0182 17.283 16.2237 17.4849L19.9913 21.3882L23.8274 17.4849C23.9644 17.283 24.3069 17.283 24.5124 17.4849C24.7179 17.6868 24.7179 18.0233 24.5124 18.2252L20.3338 22.5322C20.2653 22.5995 20.1283 22.6668 19.9913 22.6668C19.8543 22.6668 19.7173 22.5995 19.6488 22.5322L15.5387 18.2252C15.4017 18.0906 15.3332 17.956 15.3332 17.8214Z" fill="#ABB6C3"/>
<path d="M243.333 17.8214C243.333 17.6868 243.402 17.5522 243.47 17.4849C243.676 17.283 244.018 17.283 244.224 17.4849L247.991 21.3882L251.827 17.4849C251.964 17.283 252.307 17.283 252.512 17.4849C252.718 17.6868 252.718 18.0233 252.512 18.2252L248.334 22.5322C248.265 22.5995 248.128 22.6668 247.991 22.6668C247.854 22.6668 247.717 22.5995 247.649 22.5322L243.539 18.2252C243.402 18.0906 243.333 17.956 243.333 17.8214Z" fill="#ABB6C3"/>
<line opacity="0.2" x1="28.5" y1="2.18557e-08" x2="28.5" y2="40" stroke="#01B075" stroke-dasharray="2 2"/>
<line opacity="0.2" x1="39.5" y1="2.18557e-08" x2="39.5" y2="40" stroke="#01B075" stroke-dasharray="2 2"/>
<line opacity="0.2" x1="239.5" y1="2.18557e-08" x2="239.5" y2="40" stroke="#01B075" stroke-dasharray="2 2"/>
<line opacity="0.2" x1="228.5" y1="2.18557e-08" x2="228.5" y2="40" stroke="#01B075" stroke-dasharray="2 2"/>
</svg>
