<svg width="1em" height="1em" viewBox="0 0 24 24" fill="none" xmlns="http://www.w3.org/2000/svg">
<path fill-rule="evenodd" clip-rule="evenodd" d="M6.81571 5.39204L7.55418 9.08469C7.65173 9.57257 7.56393 10.0793 7.30794 10.5059L4.92018 14.4855C4.73474 14.7945 4.72985 15.1793 4.90739 15.4929C5.08493 15.8065 5.41744 16.0003 5.77778 16.0002H11.2762V21.0001C11.2762 21.2762 11.5001 21.5001 11.7762 21.5001C12.0524 21.5001 12.2762 21.2762 12.2762 21.0001V16.0002H17.7747C18.1351 16.0002 18.4675 15.8064 18.6451 15.4929C18.8226 15.1793 18.8177 14.7945 18.6323 14.4856L16.2445 10.5059C15.9885 10.0793 15.9007 9.57256 15.9983 9.08469L16.7368 5.39204C16.8542 4.80452 16.7021 4.19529 16.3223 3.73196C15.9424 3.26862 15.3748 3 14.7757 3H8.77684C8.17771 3.00003 7.61014 3.26866 7.23028 3.73198C6.85042 4.19531 6.69828 4.80452 6.81571 5.39204Z" fill="currentColor" />
<path d="M7.55418 9.08469L8.04448 8.98666L8.04448 8.98664L7.55418 9.08469ZM6.81571 5.39204L6.32541 5.49004L6.32542 5.49009L6.81571 5.39204ZM7.30794 10.5059L6.8792 10.2486L6.87919 10.2487L7.30794 10.5059ZM4.92018 14.4855L5.34889 14.7429L5.34893 14.7428L4.92018 14.4855ZM4.90739 15.4929L4.47229 15.7392L4.90739 15.4929ZM5.77778 16.0002V15.5002H5.77769L5.77778 16.0002ZM11.2762 16.0002H11.7762C11.7762 15.7241 11.5524 15.5002 11.2762 15.5002V16.0002ZM12.2762 16.0002V15.5002C12.0001 15.5002 11.7762 15.7241 11.7762 16.0002H12.2762ZM17.7747 16.0002L17.7748 15.5002H17.7747V16.0002ZM18.6451 15.4929L18.21 15.2465V15.2465L18.6451 15.4929ZM18.6323 14.4856L18.2035 14.7428L18.2036 14.7429L18.6323 14.4856ZM16.2445 10.5059L16.6732 10.2486L16.2445 10.5059ZM15.9983 9.08469L16.4886 9.18274V9.18274L15.9983 9.08469ZM16.7368 5.39204L17.2271 5.49008L17.2271 5.49007L16.7368 5.39204ZM16.3223 3.73196L15.9356 4.04896L15.9356 4.04896L16.3223 3.73196ZM8.77684 3V2.5H8.77682L8.77684 3ZM7.23028 3.73198L7.61694 4.04899L7.23028 3.73198ZM8.04448 8.98664L7.306 5.29399L6.32542 5.49009L7.06389 9.18274L8.04448 8.98664ZM7.73668 10.7632C8.05667 10.2299 8.16641 9.5965 8.04448 8.98666L7.06389 9.18272C7.13705 9.54863 7.0712 9.92867 6.8792 10.2486L7.73668 10.7632ZM5.34893 14.7428L7.73669 10.7631L6.87919 10.2487L4.49144 14.2283L5.34893 14.7428ZM5.34249 15.2465C5.25372 15.0898 5.25616 14.8973 5.34889 14.7429L4.49148 14.2282C4.21332 14.6916 4.20598 15.2689 4.47229 15.7392L5.34249 15.2465ZM5.77769 15.5002C5.59752 15.5002 5.43126 15.4033 5.34249 15.2465L4.47229 15.7392C4.7386 16.2096 5.23736 16.5003 5.77786 16.5002L5.77769 15.5002ZM11.2762 15.5002H5.77778V16.5002H11.2762V15.5002ZM11.7762 21.0001V16.0002H10.7762V21.0001H11.7762ZM11.7762 21.0001H10.7762C10.7762 21.5524 11.224 22.0001 11.7762 22.0001V21.0001ZM11.7762 21.0001V22.0001C12.3285 22.0001 12.7762 21.5524 12.7762 21.0001H11.7762ZM11.7762 16.0002V21.0001H12.7762V16.0002H11.7762ZM17.7747 15.5002H12.2762V16.5002H17.7747V15.5002ZM18.21 15.2465C18.1212 15.4033 17.955 15.5002 17.7748 15.5002L17.7747 16.5002C18.3152 16.5003 18.8139 16.2095 19.0802 15.7392L18.21 15.2465ZM18.2036 14.7429C18.2963 14.8973 18.2987 15.0898 18.21 15.2465L19.0802 15.7392C19.3465 15.2689 19.3391 14.6917 19.061 14.2282L18.2036 14.7429ZM15.8157 10.7631L18.2035 14.7428L19.061 14.2283L16.6732 10.2486L15.8157 10.7631ZM15.508 8.98665C15.3861 9.59647 15.4958 10.2299 15.8157 10.7631L16.6732 10.2486C16.4813 9.92868 16.4154 9.54864 16.4886 9.18274L15.508 8.98665ZM16.2465 5.29399L15.508 8.98665L16.4886 9.18274L17.2271 5.49008L16.2465 5.29399ZM15.9356 4.04896C16.2205 4.39645 16.3346 4.85337 16.2465 5.294L17.2271 5.49007C17.3739 4.75567 17.1838 3.99413 16.7089 3.41495L15.9356 4.04896ZM14.7757 3.5C15.225 3.5 15.6507 3.70146 15.9356 4.04896L16.7089 3.41495C16.2341 2.83578 15.5246 2.5 14.7757 2.5V3.5ZM8.77684 3.5H14.7757V2.5H8.77684V3.5ZM7.61694 4.04899C7.90184 3.7015 8.32752 3.50002 8.77687 3.5L8.77682 2.5C8.0279 2.50004 7.31845 2.83582 6.84362 3.41498L7.61694 4.04899ZM7.30601 5.29404C7.21794 4.8534 7.33205 4.39649 7.61694 4.04899L6.84362 3.41498C6.3688 3.99413 6.17862 4.75565 6.32541 5.49004L7.30601 5.29404Z" fill="currentColor" />
</svg>
