<svg width="1em" height="1em" viewBox="0 0 20 20" fill="none" xmlns="http://www.w3.org/2000/svg">
<path fill-rule="evenodd" clip-rule="evenodd" d="M15.795 17.5H4.205C3.28416 17.5 2.53833 16.7542 2.53833 15.8333V9.16667C2.53833 8.24583 3.28416 7.5 4.205 7.5H15.795C16.7158 7.5 17.4617 8.24583 17.4617 9.16667V15.8333C17.4617 16.7542 16.715 17.5 15.795 17.5Z" stroke="#1B1B1B" stroke-linecap="round" stroke-linejoin="round"/>
<path d="M3.98499 7.5V6.66667C3.98499 5.74583 4.73082 5 5.65165 5H14.3475C15.2683 5 16.0142 5.74583 16.0142 6.66667V7.5" stroke="#1B1B1B" stroke-linecap="round" stroke-linejoin="round"/>
<path d="M5.42999 5V4.16667C5.42999 3.24583 6.17583 2.5 7.09666 2.5H12.9042C13.825 2.5 14.5708 3.24583 14.5708 4.16667V5" stroke="#1B1B1B" stroke-linecap="round" stroke-linejoin="round"/>
<path d="M10 10V15" stroke="#1B1B1B" stroke-linecap="round" stroke-linejoin="round"/>
<path d="M12.4167 12.4167H7.58334" stroke="#1B1B1B" stroke-linecap="round" stroke-linejoin="round"/>
</svg>
