<svg width="1em" height="1em" viewBox="0 0 20 20" fill="none" xmlns="http://www.w3.org/2000/svg">
<path d="M3.25 7.75031H13.75" stroke="#1B1B1B" stroke-width="0.9" stroke-linecap="round" stroke-linejoin="round"/>
<path d="M10 3.25H5.5C4.25736 3.25 3.25 4.25736 3.25 5.5V14.5C3.25 15.7426 4.25736 16.75 5.5 16.75H14.5C15.7426 16.75 16.75 15.7426 16.75 14.5V10" stroke="#1B1B1B" stroke-width="0.9" stroke-linecap="round" stroke-linejoin="round"/>
<path d="M3.25 12.2503H16.75" stroke="#1B1B1B" stroke-width="0.9" stroke-linecap="round" stroke-linejoin="round"/>
<path d="M12.205 16.7503V6.25031" stroke="#1B1B1B" stroke-width="0.9" stroke-linecap="round" stroke-linejoin="round"/>
<path d="M7.70499 16.75V3.25" stroke="#1B1B1B" stroke-width="0.9" stroke-linecap="round" stroke-linejoin="round"/>
<path d="M16.75 7.75V4.75C16.75 3.92157 16.0784 3.25 15.25 3.25H12.25" stroke="#1B1B1B" stroke-width="0.9" stroke-linecap="round" stroke-linejoin="round"/>
<path d="M12.25 3.25L13.375 4.375" stroke="#1B1B1B" stroke-width="0.9" stroke-linecap="round" stroke-linejoin="round"/>
<path d="M13.375 2.125L12.25 3.25" stroke="#1B1B1B" stroke-width="0.9" stroke-linecap="round" stroke-linejoin="round"/>
<path d="M16.75 7.75L17.875 6.625" stroke="#1B1B1B" stroke-width="0.9" stroke-linecap="round" stroke-linejoin="round"/>
<path d="M15.625 6.625L16.75 7.75" stroke="#1B1B1B" stroke-width="0.9" stroke-linecap="round" stroke-linejoin="round"/>
</svg>
