<svg width="32" height="32" viewBox="0 0 32 32" fill="none" xmlns="http://www.w3.org/2000/svg">
<path d="M11.5614 11.0902C11.6913 11.2205 11.6911 11.4314 11.5609 11.5615C11.4307 11.6915 11.2198 11.6914 11.0897 11.5613C10.9595 11.4312 10.9595 11.2202 11.0895 11.09C11.2195 10.9599 11.4305 10.9596 11.5608 11.0896L11.5614 11.0902" stroke="#BDBDBD" stroke-linecap="round" stroke-linejoin="round"/>
<path d="M27.9932 13.475C23.9847 12.8588 19.9225 14.189 17.0548 17.0566C14.1871 19.9243 12.857 23.9865 13.4732 27.995" stroke="#BDBDBD" stroke-linecap="round" stroke-linejoin="round"/>
<path fill-rule="evenodd" clip-rule="evenodd" d="M21.3253 3.99243H10.6586C6.97671 3.99243 3.99194 6.9772 3.99194 10.6591V21.3258C3.99194 25.0077 6.97671 27.9924 10.6586 27.9924H21.3253C25.0072 27.9924 27.9919 25.0077 27.9919 21.3258V10.6591C27.9919 6.9772 25.0072 3.99243 21.3253 3.99243Z" stroke="#BDBDBD" stroke-linecap="round" stroke-linejoin="round"/>
</svg>
