<svg width="1em" height="1em" viewBox="0 0 20 20" fill="none" xmlns="http://www.w3.org/2000/svg">
<path d="M15.8333 9.16667V4.16667C15.8333 3.24583 15.0875 2.5 14.1667 2.5H4.16667C3.24583 2.5 2.5 3.24583 2.5 4.16667V15" stroke="currentColor"  stroke-linecap="round" stroke-linejoin="round"/>
<path d="M5.83332 2.5V13.3333" stroke="currentColor"  stroke-linecap="round" stroke-linejoin="round"/>
<path d="M9.16667 13.3334H4.16667C3.24583 13.3334 2.5 14.0792 2.5 15V15C2.5 15.9209 3.24583 16.6667 4.16667 16.6667H9.16667" stroke="currentColor"  stroke-linecap="round" stroke-linejoin="round"/>
<path d="M15.9342 12.3991C17.0158 13.4808 16.8992 15.305 15.5858 16.2275C14.75 16.8141 13.5825 16.8141 12.7467 16.2275C11.4325 15.3058 11.3167 13.4808 12.3983 12.3991C13.375 11.4225 14.9583 11.4225 15.9342 12.3991" stroke="currentColor"  stroke-linecap="round" stroke-linejoin="round"/>
<path d="M17.5 17.5L15.9333 15.9333" stroke="currentColor"  stroke-linecap="round" stroke-linejoin="round"/>
</svg>
