<svg width="268" height="40" viewBox="0 0 268 40" fill="none" xmlns="http://www.w3.org/2000/svg">
<rect x="0.5" y="0.5" width="267" height="39" rx="5.5" fill="white" stroke="#EAEDF3"/>
<path opacity="0.4" d="M0 6C0 2.68629 2.68629 0 6 0H12V40H6C2.68629 40 0 37.3137 0 34V6Z" fill="#D4F3E4"/>
<path opacity="0.4" d="M256 0H262C265.314 0 268 2.68629 268 6V34C268 37.3137 265.314 40 262 40H256V0Z" fill="#D4F3E4"/>
<path opacity="0.3" d="M0 28H268V34C268 37.3137 265.314 40 262 40H5.99999C2.68629 40 0 37.3137 0 34V28Z" fill="#D4F3E4"/>
<path opacity="0.3" d="M268 12L0 12V6C0 2.68629 2.68628 0 6 0L262 0C265.314 0 268 2.68629 268 6V12Z" fill="#D4F3E4"/>
</svg>
