<svg width="1em" height="1em" viewBox="0 0 20 20" fill="none" xmlns="http://www.w3.org/2000/svg">
<path d="M11.25 8.33331H9.16665C7.09559 8.33331 5.41666 10.0122 5.41666 12.0833V12.0833C5.41666 13.0779 5.81174 14.0317 6.51501 14.735C7.21827 15.4382 8.17209 15.8333 9.16665 15.8333H13.75C15.8211 15.8333 17.5 14.1544 17.5 12.0833V12.0833C17.4985 11.2936 17.2458 10.5248 16.7783 9.88831" stroke="currentColor" stroke-linecap="round" stroke-linejoin="round"/>
<path d="M8.75 11.6667H10.8333C12.9044 11.6667 14.5833 9.98772 14.5833 7.91665V7.91665C14.5833 5.84559 12.9044 4.16666 10.8333 4.16666H6.25C4.17893 4.16666 2.5 5.84559 2.5 7.91665H2.5C2.50147 8.70637 2.75422 9.47513 3.22167 10.1117" stroke="currentColor" stroke-linecap="round" stroke-linejoin="round"/>
</svg>
