<svg width="1em" height="1em" viewBox="0 0 20 20" fill="none" xmlns="http://www.w3.org/2000/svg">
<path fill-rule="evenodd" clip-rule="evenodd" d="M16.7081 11.9106C16.3827 11.5852 15.8551 11.5852 15.5297 11.9106L13.1608 14.2795C13.0045 14.4358 12.9167 14.6477 12.9167 14.8688V16.6665H14.7144C14.9354 16.6665 15.1474 16.5787 15.3037 16.4224L17.6726 14.0535C17.8289 13.8972 17.9167 13.6852 17.9167 13.4642C17.9167 13.2432 17.8289 13.0313 17.6726 12.875L16.7081 11.9106Z" stroke="currentColor"  stroke-linecap="round" stroke-linejoin="round"/>
<path d="M10 17.4999C5.96139 17.5198 2.63218 14.3382 2.46906 10.3029C2.30593 6.26748 5.36748 2.82753 9.39454 2.52141C13.4216 2.21529 16.9679 5.15293 17.4167 9.16659" stroke="currentColor"  stroke-linecap="round" stroke-linejoin="round"/>
<path d="M8.33337 8.74992H11.6667" stroke="currentColor"  stroke-linecap="round" stroke-linejoin="round"/>
<path d="M10 8.75V12.0833" stroke="currentColor"  stroke-linecap="round" stroke-linejoin="round"/>
</svg>
