<svg width="1em" height="1em" viewBox="0 0 20 20" fill="none" xmlns="http://www.w3.org/2000/svg">
<path fill-rule="evenodd" clip-rule="evenodd" d="M6.66667 8.33333H4.16667C3.24583 8.33333 2.5 7.5875 2.5 6.66667V4.16667C2.5 3.24583 3.24583 2.5 4.16667 2.5H6.66667C7.5875 2.5 8.33333 3.24583 8.33333 4.16667V6.66667C8.33333 7.5875 7.5875 8.33333 6.66667 8.33333Z" stroke="currentColor"  stroke-linecap="round" stroke-linejoin="round"/>
<path fill-rule="evenodd" clip-rule="evenodd" d="M15.8333 8.33333H13.3333C12.4125 8.33333 11.6666 7.5875 11.6666 6.66667V4.16667C11.6666 3.24583 12.4125 2.5 13.3333 2.5H15.8333C16.7541 2.5 17.5 3.24583 17.5 4.16667V6.66667C17.5 7.5875 16.7541 8.33333 15.8333 8.33333Z" stroke="currentColor"  stroke-linecap="round" stroke-linejoin="round"/>
<path fill-rule="evenodd" clip-rule="evenodd" d="M6.66667 17.5001H4.16667C3.24583 17.5001 2.5 16.7542 2.5 15.8334V13.3334C2.5 12.4126 3.24583 11.6667 4.16667 11.6667H6.66667C7.5875 11.6667 8.33333 12.4126 8.33333 13.3334V15.8334C8.33333 16.7542 7.5875 17.5001 6.66667 17.5001Z" stroke="currentColor"  stroke-linecap="round" stroke-linejoin="round"/>
<path d="M14.5833 12.5V16.6667" stroke="currentColor"  stroke-linecap="round" stroke-linejoin="round"/>
<path d="M16.6667 14.5834H12.5" stroke="currentColor"  stroke-linecap="round" stroke-linejoin="round"/>
</svg>
