<svg width="1em" height="1em" viewBox="0 0 20 20" fill="none" xmlns="http://www.w3.org/2000/svg">
<rect width="20" height="20" rx="6" fill="#1B1B1B"/>
<path d="M4.53267 15H3.33239L6.80398 5.54545H7.9858L11.4574 15H10.2571L7.43182 7.04119H7.35795L4.53267 15ZM4.97585 11.3068H9.81392V12.3224H4.97585V11.3068ZM13.3917 12.3409V12.2855C13.3978 11.6977 13.4594 11.2299 13.5763 10.8821C13.6933 10.5343 13.8595 10.2527 14.0749 10.0373C14.2904 9.82185 14.5489 9.62334 14.8505 9.44176C15.0321 9.33097 15.1952 9.20017 15.3398 9.04936C15.4845 8.89548 15.5984 8.71851 15.6815 8.51847C15.7676 8.31842 15.8107 8.09683 15.8107 7.85369C15.8107 7.55208 15.7399 7.29048 15.5984 7.06889C15.4568 6.8473 15.2675 6.67649 15.0305 6.55646C14.7936 6.43643 14.5304 6.37642 14.2411 6.37642C13.9888 6.37642 13.7456 6.42874 13.5117 6.53338C13.2778 6.63802 13.0824 6.80268 12.9254 7.02734C12.7685 7.25201 12.6777 7.54593 12.6531 7.90909H11.4897C11.5143 7.38589 11.6497 6.93809 11.896 6.5657C12.1452 6.1933 12.473 5.90862 12.8793 5.71165C13.2886 5.51468 13.7425 5.41619 14.2411 5.41619C14.7828 5.41619 15.2537 5.52391 15.6538 5.73935C16.0569 5.95478 16.3678 6.25024 16.5863 6.62571C16.8079 7.00118 16.9187 7.42898 16.9187 7.90909C16.9187 8.24763 16.8664 8.55386 16.7617 8.82777C16.6602 9.10168 16.5124 9.34635 16.3185 9.56179C16.1277 9.77723 15.8969 9.96804 15.6261 10.1342C15.3552 10.3035 15.1383 10.482 14.9751 10.6697C14.812 10.8544 14.6935 11.0745 14.6197 11.3299C14.5458 11.5853 14.5058 11.9039 14.4996 12.2855V12.3409H13.3917ZM13.9826 15.0739C13.7549 15.0739 13.5594 14.9923 13.3963 14.8292C13.2332 14.6661 13.1516 14.4706 13.1516 14.2429C13.1516 14.0152 13.2332 13.8197 13.3963 13.6566C13.5594 13.4935 13.7549 13.4119 13.9826 13.4119C14.2103 13.4119 14.4058 13.4935 14.5689 13.6566C14.732 13.8197 14.8136 14.0152 14.8136 14.2429C14.8136 14.3937 14.7751 14.5322 14.6982 14.6584C14.6243 14.7846 14.5243 14.8861 14.3981 14.9631C14.275 15.0369 14.1365 15.0739 13.9826 15.0739Z" fill="white"/>
</svg>
