<svg width="1em" height="1em" viewBox="0 0 20 20" fill="none" xmlns="http://www.w3.org/2000/svg">
<path fill-rule="evenodd" clip-rule="evenodd" d="M17.5 4.16667V6.45833C17.5 7.37917 16.7542 8.125 15.8333 8.125H4.16667C3.24583 8.125 2.5 7.37917 2.5 6.45833V4.16667C2.5 3.24583 3.24583 2.5 4.16667 2.5H15.8333C16.7542 2.5 17.5 3.24583 17.5 4.16667Z" stroke="currentColor"  stroke-linecap="round" stroke-linejoin="round"/>
<path fill-rule="evenodd" clip-rule="evenodd" d="M17.5 13.5417V15.8333C17.5 16.7542 16.7542 17.5 15.8333 17.5H4.16667C3.24583 17.5 2.5 16.7542 2.5 15.8333V13.5417C2.5 12.6208 3.24583 11.875 4.16667 11.875H15.8333C16.7542 11.875 17.5 12.6208 17.5 13.5417Z" stroke="currentColor"  stroke-linecap="round" stroke-linejoin="round"/>
</svg>
