<svg width="1em" height="1em" viewBox="0 0 20 20" fill="none" xmlns="http://www.w3.org/2000/svg">
<path d="M7.22585 6.93141C7.30707 7.01283 7.30694 7.14467 7.22557 7.22594C7.14419 7.30721 7.01236 7.30717 6.93103 7.22585C6.84971 7.14452 6.84967 7.01269 6.93094 6.93131C7.01221 6.84994 7.14405 6.84981 7.22547 6.93103L7.22585 6.93141" stroke="currentColor"  stroke-linecap="round" stroke-linejoin="round"/>
<path d="M17.4957 8.42193C14.9904 8.03683 12.4515 8.86816 10.6592 10.6605C8.86692 12.4528 8.03559 14.9917 8.42069 17.4969" stroke="currentColor"  stroke-linecap="round" stroke-linejoin="round"/>
<path fill-rule="evenodd" clip-rule="evenodd" d="M13.3283 2.4953H6.66164C4.36045 2.4953 2.49497 4.36078 2.49497 6.66197V13.3286C2.49497 15.6298 4.36045 17.4953 6.66164 17.4953H13.3283C15.6295 17.4953 17.495 15.6298 17.495 13.3286V6.66197C17.495 4.36078 15.6295 2.4953 13.3283 2.4953Z" stroke="currentColor"  stroke-linecap="round" stroke-linejoin="round"/>
</svg>
