<svg width="1em" height="1em" viewBox="0 0 20 20" fill="none" xmlns="http://www.w3.org/2000/svg">
<path fill-rule="evenodd" clip-rule="evenodd" d="M15.8333 17.5H13.5417C12.6208 17.5 11.875 16.7542 11.875 15.8333V4.16667C11.875 3.24583 12.6208 2.5 13.5417 2.5H15.8333C16.7542 2.5 17.5 3.24583 17.5 4.16667V15.8333C17.5 16.7542 16.7542 17.5 15.8333 17.5Z" stroke="currentColor"  stroke-linecap="round" stroke-linejoin="round"/>
<path fill-rule="evenodd" clip-rule="evenodd" d="M6.45833 17.5H4.16667C3.24583 17.5 2.5 16.7542 2.5 15.8333V4.16667C2.5 3.24583 3.24583 2.5 4.16667 2.5H6.45833C7.37917 2.5 8.125 3.24583 8.125 4.16667V15.8333C8.125 16.7542 7.37917 17.5 6.45833 17.5Z" stroke="currentColor"  stroke-linecap="round" stroke-linejoin="round"/>
</svg>
