<svg width="20" height="20" viewBox="0 0 20 20" fill="none" xmlns="http://www.w3.org/2000/svg">
<path d="M7.5 13.3335L9.16667 15.0002L7.5 16.6668" stroke="currentColor" stroke-linecap="round" stroke-linejoin="round"/>
<path d="M3.33337 10.8335V13.3335C3.33337 14.2543 4.07921 15.0002 5.00004 15.0002H9.16671" stroke="currentColor" stroke-linecap="round" stroke-linejoin="round"/>
<path d="M12.5 6.66683L10.8334 5.00016L12.5 3.3335" stroke="currentColor" stroke-linecap="round" stroke-linejoin="round"/>
<path d="M16.6667 9.16667V6.66667C16.6667 5.74583 15.9209 5 15 5H10.8334" stroke="currentColor" stroke-linecap="round" stroke-linejoin="round"/>
<path fill-rule="evenodd" clip-rule="evenodd" d="M6.66667 8.33333H4.16667C3.24583 8.33333 2.5 7.5875 2.5 6.66667V4.16667C2.5 3.24583 3.24583 2.5 4.16667 2.5H6.66667C7.5875 2.5 8.33333 3.24583 8.33333 4.16667V6.66667C8.33333 7.5875 7.5875 8.33333 6.66667 8.33333Z" stroke="currentColor" stroke-linecap="round" stroke-linejoin="round"/>
<path fill-rule="evenodd" clip-rule="evenodd" d="M15.8333 17.4998H13.3333C12.4125 17.4998 11.6666 16.754 11.6666 15.8332V13.3332C11.6666 12.4123 12.4125 11.6665 13.3333 11.6665H15.8333C16.7541 11.6665 17.5 12.4123 17.5 13.3332V15.8332C17.5 16.754 16.7541 17.4998 15.8333 17.4998Z" stroke="currentColor" stroke-linecap="round" stroke-linejoin="round"/>
</svg>
