<svg width="1em" height="1em" viewBox="0 0 20 20" fill="none" xmlns="http://www.w3.org/2000/svg">
<path d="M17 9.05933V7.16667C17 6.24619 16.2538 5.5 15.3333 5.5H9.975C9.69915 5.5 9.44119 5.3635 9.28602 5.13543L8.08115 3.3646C7.92598 3.13651 7.668 3 7.39213 3H3.66667C2.74619 3 2 3.74619 2 4.66667V15.0141C2 15.7427 2.59064 16.3333 3.31923 16.3333M3.31923 16.3333C3.99144 16.3333 4.55616 15.8279 4.63039 15.1598L5.1686 10.316C5.26238 9.47189 5.97582 8.83333 6.82508 8.83333H16.1665C16.6405 8.83333 17.0922 9.03522 17.4083 9.38846C17.7245 9.74171 17.8753 10.2129 17.8229 10.6841L17.36 14.8507C17.2662 15.6948 16.5528 16.3333 15.7035 16.3333H3.31923Z" stroke="currentColor"  stroke-linecap="round" stroke-linejoin="round"/>
</svg>
