<svg width="1em" height="1em" viewBox="0 0 200 200" fill="none" xmlns="http://www.w3.org/2000/svg">
<g clip-path="url(#clip0_1065_3583)">
<path fill-rule="evenodd" clip-rule="evenodd" d="M99.5841 90.9476L111.958 103.322L114.08 101.201L101.705 88.8263L114.08 76.4519L111.958 74.3306L99.5841 86.705L87.2097 74.3306L85.0884 76.4519L97.4628 88.8263L85.0884 101.201L87.2097 103.322L99.5841 90.9476Z" fill="#59BD39"/>
<path d="M62.2219 137.033C85.3651 154.242 118.232 153.387 140.662 133.362C166.299 110.476 168.596 71.2154 145.792 45.6717C122.988 20.1279 83.7196 17.9738 58.083 40.8604C39.2517 57.6716 33.0137 83.3177 40.0668 105.873C41.9038 111.747 44.6424 117.412 48.295 122.656" stroke="#1B1B1B" stroke-width="4"/>
<path d="M142.07 129.691L168.742 155.999" stroke="#1B1B1B" stroke-width="3"/>
</g>
<defs>
<clipPath id="clip0_1065_3583">
<rect width="200" height="200" fill="white"/>
</clipPath>
</defs>
</svg>
