<svg width="1em" height="1em" viewBox="0 0 20 20" fill="none" xmlns="http://www.w3.org/2000/svg">
<circle cx="10" cy="10" r="10" fill="#36AA55"/>
<path d="M10.9997 8.85742H9.57122C8.15111 8.85742 6.99988 10.0086 6.99988 11.4288V11.4288C6.99988 12.1107 7.27079 12.7648 7.75301 13.247C8.23523 13.7292 8.88926 14.0001 9.57122 14.0001H12.714C14.1341 14.0001 15.2853 12.8489 15.2853 11.4288V11.4288C15.2843 10.8873 15.111 10.3601 14.7905 9.92367" stroke="white" stroke-linecap="round" stroke-linejoin="round"/>
<path d="M9.28556 11.1427H10.7141C12.1342 11.1427 13.2854 9.99145 13.2854 8.57134V8.57134C13.2854 7.15123 12.1342 6 10.7141 6H7.57134C6.15123 6 5 7.15123 5 8.57134H5C5.00101 9.11284 5.17432 9.63997 5.49484 10.0764" stroke="white" stroke-linecap="round" stroke-linejoin="round"/>
</svg>
