<svg width="32" height="32" viewBox="0 0 32 32" fill="none" xmlns="http://www.w3.org/2000/svg">
<circle cx="16" cy="16" r="16" fill="white"/>
<path fill-rule="evenodd" clip-rule="evenodd" d="M32 16C32 24.8366 24.8366 32 16 32C7.16344 32 0 24.8366 0 16C0 7.16344 7.16344 0 16 0C24.8366 0 32 7.16344 32 16ZM12 12C12 11.4477 12.4477 11 13 11C13.5523 11 14 11.4477 14 12V20C14 20.5523 13.5523 21 13 21C12.4477 21 12 20.5523 12 20V12ZM19 11C18.4477 11 18 11.4477 18 12V20C18 20.5523 18.4477 21 19 21C19.5523 21 20 20.5523 20 20V12C20 11.4477 19.5523 11 19 11Z" fill="currentColor"/>
</svg>
