<svg width="16" height="16" viewBox="0 0 16 16" fill="none" xmlns="http://www.w3.org/2000/svg">
  <path d="M1.52251 9.1651V12.9006H3.95568C4.34205 12.8993 4.7262 12.9583 5.09389 13.0755L5.84701 13.3176C6.43405 13.5037 7.04677 13.599 7.66337 13.6H13.5112C13.7277 13.6 13.9364 13.5198 14.096 13.3754C14.2556 13.231 14.3546 13.0328 14.3733 12.8199L15.1946 6.65682C15.2059 6.57714 15.1996 6.49602 15.1763 6.41894C15.153 6.34186 15.1132 6.27062 15.0595 6.21004C15.0059 6.14946 14.9397 6.10097 14.8654 6.06783C14.7911 6.03469 14.7105 6.01769 14.6289 6.01798H10.8088C10.7072 6.01709 10.6102 5.97667 10.5387 5.90551C10.4672 5.83435 10.4271 5.73822 10.4271 5.63803V2.78343C10.4271 2.68026 10.4065 2.57812 10.3663 2.48285C10.3262 2.38758 10.2674 2.30106 10.1933 2.22827C10.1192 2.15548 10.0313 2.09785 9.93458 2.05867C9.83785 2.0195 9.73423 1.99956 9.62968 2.00001H8.31767L6.74667 5.57079C6.6408 5.81161 6.48746 6.02926 6.29557 6.21108C6.10368 6.39291 5.87707 6.53528 5.62891 6.62992L4.98484 6.87537C4.62782 7.00923 4.24901 7.0776 3.86707 7.07711H0.800049" stroke="#37D71D" stroke-miterlimit="10" stroke-linecap="round"/>
  </svg>
  