<svg width="1em" height="1em" viewBox="0 0 20 20" fill="none" xmlns="http://www.w3.org/2000/svg">
<path fill-rule="evenodd" clip-rule="evenodd" d="M7.54331 2.40065L7.88615 3.48632C8.56734 3.25698 9.28159 3.14116 10.0003 3.14348V2.00067C9.16424 1.98926 8.33262 2.12464 7.54331 2.40065ZM3.54349 5.31511C4.02468 4.64357 4.6023 4.04669 5.25771 3.54375L5.94339 4.458C5.37762 4.89932 4.87741 5.41878 4.45774 6.00079L3.54349 5.31511ZM2.40065 7.54324L3.48632 7.88608C3.25698 8.56728 3.14116 9.28153 3.14348 10.0003H2.00067C1.98926 9.16418 2.12464 8.33256 2.40065 7.54324ZM2.40065 12.5142C2.66565 13.311 3.05105 14.0625 3.54346 14.7427L4.45771 14.057C4.04463 13.4786 3.71744 12.8435 3.48632 12.1714L2.40065 12.5142ZM7.54327 17.6003C6.74648 17.3353 5.99495 16.9499 5.31479 16.4575L6.00047 15.5433C6.57886 15.9563 7.21399 16.2835 7.88611 16.5146L7.54327 17.6003ZM16.4573 14.6857C15.9556 15.3588 15.359 15.9554 14.6859 16.4571L14.0002 15.5428C14.5967 15.1179 15.1181 14.5965 15.543 14L16.4573 14.6857ZM16.5144 12.1147L17.6 12.4576C17.8486 11.6615 17.9832 10.8343 18 10.0005H16.8572C16.8595 10.7193 16.7437 11.4335 16.5144 12.1147ZM16.4001 5.25782C16.8925 5.93798 17.2779 6.68951 17.5429 7.4863L16.4572 7.82914C16.2261 7.15702 15.8989 6.52189 15.4858 5.94351L16.4001 5.25782ZM14.6288 3.48656C13.9486 2.99415 13.1971 2.60875 12.4003 2.34375L12.0574 3.42942C12.7296 3.66054 13.3647 3.98773 13.9431 4.40081L14.6288 3.48656ZM12.1145 16.5146L12.4574 17.6003C11.6541 17.8168 10.8308 17.9508 10.0003 18.0003V16.8575C10.7191 16.8598 11.4334 16.744 12.1145 16.5146Z" fill="#DDE1E7"/>
</svg>
