<svg width="40" height="40" viewBox="0 0 40 40" fill="none" xmlns="http://www.w3.org/2000/svg">
<path fill-rule="evenodd" clip-rule="evenodd" d="M5 21.6667V10C5 7.23858 7.23858 5 10 5H30C32.7614 5 35 7.23858 35 10V21.6667C35 24.4281 32.7614 26.6667 30 26.6667H10C7.23858 26.6667 5 24.4281 5 21.6667Z" stroke="#1B1B1B" stroke-linecap="round" stroke-linejoin="round"/>
<path fill-rule="evenodd" clip-rule="evenodd" d="M16.871 18.9148V12.7512C16.8711 12.3641 17.0777 12.0064 17.4131 11.8129C17.7484 11.6195 18.1615 11.6197 18.4967 11.8134L23.8297 14.8952C24.1647 15.0887 24.371 15.4462 24.371 15.833C24.371 16.2199 24.1647 16.5774 23.8297 16.7709L18.4967 19.8527C18.1615 20.0464 17.7484 20.0466 17.4131 19.8532C17.0777 19.6597 16.8711 19.302 16.871 18.9148V18.9148Z" stroke="#1B1B1B" stroke-linecap="round" stroke-linejoin="round"/>
<path d="M33.3333 33.3333H16.6666" stroke="#1B1B1B" stroke-linecap="round" stroke-linejoin="round"/>
<path d="M6.66663 33.3333H11.6666" stroke="#1B1B1B" stroke-linecap="round" stroke-linejoin="round"/>
<path d="M11.6667 35.0003V31.667" stroke="#1B1B1B" stroke-linecap="round" stroke-linejoin="round"/>
</svg>
